<svg width="432" height="1019" viewBox="0 0 432 1019" fill="none" xmlns="http://www.w3.org/2000/svg">
    <g opacity="0.5">
        <path d="M528.138 182.361L371.464 274.18" stroke="url(#paint0_linear_15_2063)" />
        <path d="M440.328 391.686L371.464 274.18" stroke="#B2B2B2" />
        <path d="M97.2832 434.864L214.789 366" stroke="#B2B2B2" />
        <path d="M166.147 552.37L283.653 483.506" stroke="#B2B2B2" />
        <path d="M214.789 366L283.653 483.506" stroke="#B2B2B2" />
        <path d="M97.2832 434.864L166.148 552.37" stroke="#B2B2B2" />
        <path d="M214.789 366L371.464 274.181" stroke="url(#paint1_linear_15_2063)" />
        <path d="M283.654 483.505L440.328 391.686" stroke="#B2B2B2" />
        <path d="M214.789 366L283.653 483.506" stroke="#B2B2B2" />
        <path d="M509.192 509.192L391.686 578.056" stroke="#B2B2B2" />
        <path d="M440.328 391.686L322.822 460.55" stroke="#B2B2B2" />
        <path d="M391.687 578.056L322.822 460.551" stroke="#B2B2B2" />
        <path d="M391.687 578.056L235.012 669.876" stroke="#B2B2B2" />
        <path d="M322.822 460.55L166.148 552.37" stroke="#B2B2B2" />
        <path d="M235.012 669.876L166.148 552.37" stroke="url(#paint2_linear_15_2063)" />
        <path d="M391.687 578.056L322.822 460.551" stroke="#B2B2B2" />
        <path d="M235.008 669.875L352.513 601.011" stroke="#B2B2B2" />
        <path d="M303.872 787.381L421.378 718.516" stroke="#B2B2B2" />
        <path d="M352.514 601.011L421.378 718.517" stroke="#B2B2B2" />
        <path d="M235.008 669.875L303.872 787.381" stroke="#B2B2B2" />
        <path d="M352.514 601.01L509.189 509.191" stroke="url(#paint3_linear_15_2063)" />
        <path d="M421.378 718.516L578.053 626.697" stroke="#B2B2B2" />
        <path d="M352.514 601.01L421.379 718.516" stroke="#B2B2B2" />
        <path d="M529.411 813.068L372.737 904.887" stroke="#B2B2B2" />
        <path d="M460.547 695.562L303.872 787.381" stroke="#B2B2B2" />
        <path d="M372.737 904.887L303.872 787.381" stroke="#B2B2B2" />
    </g>
    <defs>
        <linearGradient id="paint0_linear_15_2063" x1="527.722" y1="183.954" x2="427.61" y2="316.566" gradientUnits="userSpaceOnUse">
            <stop stop-color="#E70FAA" />
            <stop offset="1" stop-color="#13B0F5" />
        </linearGradient>
        <linearGradient id="paint1_linear_15_2063" x1="246.778" y1="374.349" x2="325.208" y2="303.866" gradientUnits="userSpaceOnUse">
            <stop stop-color="#00C0FD" />
            <stop offset="0.421875" stop-color="#E70FAA" />
            <stop offset="1" stop-color="#00C0FD" />
        </linearGradient>
        <linearGradient id="paint2_linear_15_2063" x1="235.012" y1="669.876" x2="134.428" y2="594.956" gradientUnits="userSpaceOnUse">
            <stop stop-color="#8E34FF" />
            <stop offset="0.494792" stop-color="#CA24B4" />
            <stop offset="1" stop-color="#8E34FF" />
        </linearGradient>
        <linearGradient id="paint3_linear_15_2063" x1="392.583" y1="577.865" x2="465.957" y2="479.805" gradientUnits="userSpaceOnUse">
            <stop stop-color="#13B0F5" />
            <stop offset="0.75" stop-color="#CA24B4" />
            <stop offset="1" stop-color="#13B0F5" />
        </linearGradient>
    </defs>
</svg>