<svg width="1019" height="1019" viewBox="0 0 1019 1019" fill="none" xmlns="http://www.w3.org/2000/svg">
<g filter="url(#filter0_d_4537_888)">
<path d="M714.509 231.003L597.003 299.867" stroke="#B2B2B2"/>
<path d="M645.644 113.497L528.138 182.361" stroke="url(#paint0_linear_4537_888)"/>
<path d="M597.002 299.867L528.138 182.361" stroke="#B2B2B2"/>
<path d="M714.509 231.003L645.644 113.497" stroke="#B2B2B2"/>
<path d="M597.002 299.867L440.328 391.686" stroke="#B2B2B2"/>
<path d="M528.138 182.361L371.464 274.18" stroke="url(#paint1_linear_4537_888)"/>
<path d="M440.328 391.686L371.464 274.181" stroke="#B2B2B2"/>
<path d="M597.002 299.867L528.138 182.361" stroke="url(#paint2_linear_4537_888)"/>
<path d="M97.2832 434.864L214.789 366" stroke="#B2B2B2"/>
<path d="M166.147 552.37L283.653 483.506" stroke="#B2B2B2"/>
<path d="M214.789 366L283.653 483.506" stroke="#B2B2B2"/>
<path d="M97.2832 434.864L166.148 552.37" stroke="#B2B2B2"/>
<path d="M214.789 366L371.464 274.181" stroke="url(#paint3_linear_4537_888)"/>
<path d="M283.654 483.506L440.328 391.687" stroke="#B2B2B2"/>
<path d="M214.789 366L283.653 483.506" stroke="#B2B2B2"/>
<path d="M440.328 391.686L557.834 322.822" stroke="#B2B2B2"/>
<path d="M509.192 509.192L626.698 440.328" stroke="#B2B2B2"/>
<path d="M557.834 322.822L626.698 440.328" stroke="#B2B2B2"/>
<path d="M557.833 322.822L714.508 231.003" stroke="#B2B2B2"/>
<path d="M626.698 440.328L783.373 348.509" stroke="#B2B2B2"/>
<path d="M714.508 231.003L783.372 348.509" stroke="url(#paint4_linear_4537_888)"/>
<path d="M557.833 322.822L626.698 440.328" stroke="#B2B2B2"/>
<path d="M509.192 509.192L391.686 578.057" stroke="#B2B2B2"/>
<path d="M440.328 391.686L322.822 460.551" stroke="#B2B2B2"/>
<path d="M391.687 578.057L322.822 460.551" stroke="#B2B2B2"/>
<path d="M391.687 578.057L235.012 669.876" stroke="#B2B2B2"/>
<path d="M322.822 460.551L166.148 552.37" stroke="#B2B2B2"/>
<path d="M235.012 669.876L166.148 552.37" stroke="url(#paint5_linear_4537_888)"/>
<path d="M391.687 578.057L322.822 460.551" stroke="#B2B2B2"/>
<path d="M852.173 465.998L734.667 534.863" stroke="#B2B2B2"/>
<path d="M783.309 348.493L665.803 417.357" stroke="#B2B2B2"/>
<path d="M734.667 534.863L665.803 417.357" stroke="#B2B2B2"/>
<path d="M852.173 465.998L783.309 348.493" stroke="#B2B2B2"/>
<path d="M734.667 534.863L577.993 626.682" stroke="#B2B2B2"/>
<path d="M665.803 417.357L509.128 509.176" stroke="#B2B2B2"/>
<path d="M577.993 626.682L509.128 509.176" stroke="#B2B2B2"/>
<path d="M734.667 534.863L665.803 417.357" stroke="url(#paint6_linear_4537_888)"/>
<path d="M234.948 669.86L352.454 600.995" stroke="#B2B2B2"/>
<path d="M303.812 787.365L421.318 718.501" stroke="#B2B2B2"/>
<path d="M352.454 600.995L421.318 718.501" stroke="#B2B2B2"/>
<path d="M234.948 669.86L303.812 787.366" stroke="#B2B2B2"/>
<path d="M352.454 600.995L509.129 509.176" stroke="url(#paint7_linear_4537_888)"/>
<path d="M421.319 718.501L577.993 626.682" stroke="#B2B2B2"/>
<path d="M352.454 600.995L421.319 718.501" stroke="#B2B2B2"/>
<path d="M577.993 626.682L695.499 557.817" stroke="#B2B2B2"/>
<path d="M646.857 744.188L764.363 675.323" stroke="#B2B2B2"/>
<path d="M695.499 557.818L764.363 675.323" stroke="#B2B2B2"/>
<path d="M695.499 557.817L852.173 465.998" stroke="url(#paint8_linear_4537_888)"/>
<path d="M764.363 675.323L921.038 583.504" stroke="url(#paint9_linear_4537_888)"/>
<path d="M852.173 465.998L921.037 583.504" stroke="#B2B2B2"/>
<path d="M695.499 557.817L764.363 675.323" stroke="#B2B2B2"/>
<path d="M646.857 744.188L529.351 813.052" stroke="#B2B2B2"/>
<path d="M577.993 626.682L460.487 695.546" stroke="#B2B2B2"/>
<path d="M529.351 813.052L460.487 695.546" stroke="#B2B2B2"/>
<path d="M529.351 813.052L372.677 904.871" stroke="#B2B2B2"/>
<path d="M460.487 695.546L303.812 787.366" stroke="#B2B2B2"/>
<path d="M372.677 904.872L303.812 787.366" stroke="#B2B2B2"/>
<path d="M529.351 813.052L460.487 695.546" stroke="url(#paint10_linear_4537_888)"/>
</g>
<defs>
<filter id="filter0_d_4537_888" x="92.8518" y="113.066" width="832.617" height="800.237" filterUnits="userSpaceOnUse" color-interpolation-filters="sRGB">
<feFlood flood-opacity="0" result="BackgroundImageFix"/>
<feColorMatrix in="SourceAlpha" type="matrix" values="0 0 0 0 0 0 0 0 0 0 0 0 0 0 0 0 0 0 127 0" result="hardAlpha"/>
<feOffset dy="4"/>
<feGaussianBlur stdDeviation="2"/>
<feComposite in2="hardAlpha" operator="out"/>
<feColorMatrix type="matrix" values="0 0 0 0 0 0 0 0 0 0 0 0 0 0 0 0 0 0 0.25 0"/>
<feBlend mode="normal" in2="BackgroundImageFix" result="effect1_dropShadow_4537_888"/>
<feBlend mode="normal" in="SourceGraphic" in2="effect1_dropShadow_4537_888" result="shape"/>
</filter>
<linearGradient id="paint0_linear_4537_888" x1="621.652" y1="107.235" x2="562.83" y2="160.098" gradientUnits="userSpaceOnUse">
<stop stop-color="#13B0F5"/>
<stop offset="1" stop-color="#CA24B4"/>
</linearGradient>
<linearGradient id="paint1_linear_4537_888" x1="527.722" y1="183.954" x2="427.61" y2="316.567" gradientUnits="userSpaceOnUse">
<stop stop-color="#E70FAA"/>
<stop offset="1" stop-color="#13B0F5"/>
</linearGradient>
<linearGradient id="paint2_linear_4537_888" x1="603.264" y1="275.875" x2="550.402" y2="217.053" gradientUnits="userSpaceOnUse">
<stop stop-color="#13B0F5"/>
<stop offset="1" stop-color="#CA24B4"/>
</linearGradient>
<linearGradient id="paint3_linear_4537_888" x1="246.778" y1="374.349" x2="325.208" y2="303.866" gradientUnits="userSpaceOnUse">
<stop stop-color="#00C0FD"/>
<stop offset="0.421875" stop-color="#E70FAA"/>
<stop offset="1" stop-color="#00C0FD"/>
</linearGradient>
<linearGradient id="paint4_linear_4537_888" x1="708.246" y1="254.994" x2="761.109" y2="313.817" gradientUnits="userSpaceOnUse">
<stop stop-color="#13B0F5"/>
<stop offset="0.0001" stop-color="#505685"/>
<stop offset="0.317708" stop-color="#CA24B4"/>
<stop offset="1" stop-color="#13B0F5"/>
</linearGradient>
<linearGradient id="paint5_linear_4537_888" x1="235.012" y1="669.876" x2="134.428" y2="594.956" gradientUnits="userSpaceOnUse">
<stop stop-color="#8E34FF"/>
<stop offset="0.494792" stop-color="#CA24B4"/>
<stop offset="1" stop-color="#8E34FF"/>
</linearGradient>
<linearGradient id="paint6_linear_4537_888" x1="740.929" y1="510.871" x2="688.067" y2="452.049" gradientUnits="userSpaceOnUse">
<stop stop-color="#CA24B4"/>
<stop offset="0.234375" stop-color="#13B0F5"/>
</linearGradient>
<linearGradient id="paint7_linear_4537_888" x1="392.523" y1="577.85" x2="465.897" y2="479.79" gradientUnits="userSpaceOnUse">
<stop stop-color="#13B0F5"/>
<stop offset="0.75" stop-color="#CA24B4"/>
<stop offset="1" stop-color="#13B0F5"/>
</linearGradient>
<linearGradient id="paint8_linear_4537_888" x1="727.488" y1="566.166" x2="805.917" y2="495.683" gradientUnits="userSpaceOnUse">
<stop stop-color="#8643DC"/>
<stop offset="0.0001" stop-color="#8643DC"/>
<stop offset="0.317708" stop-color="#CA24B4"/>
<stop offset="1" stop-color="#8643DC"/>
</linearGradient>
<linearGradient id="paint9_linear_4537_888" x1="796.352" y1="683.672" x2="874.782" y2="613.189" gradientUnits="userSpaceOnUse">
<stop stop-color="#8643DC"/>
<stop offset="0.0001" stop-color="#8643DC"/>
<stop offset="0.317708" stop-color="#CA24B4"/>
<stop offset="1" stop-color="#8643DC"/>
</linearGradient>
<linearGradient id="paint10_linear_4537_888" x1="529.351" y1="813.052" x2="428.767" y2="738.133" gradientUnits="userSpaceOnUse">
<stop stop-color="#13B0F5"/>
<stop offset="0.0582928" stop-color="#CA24B4"/>
<stop offset="1" stop-color="#13B0F5"/>
</linearGradient>
</defs>
</svg>
